<?xml version="1.0" standalone="no"?><!DOCTYPE svg PUBLIC "-//W3C//DTD SVG 1.1//EN" "http://www.w3.org/Graphics/SVG/1.1/DTD/svg11.dtd"><svg t="1677917562747" class="icon" viewBox="0 0 1137 1024" version="1.1" xmlns="http://www.w3.org/2000/svg" p-id="7786" xmlns:xlink="http://www.w3.org/1999/xlink" width="222.0703125" height="200"><path d="M524.861257 1003.17l-512.007191-625.786567a56.889688 56.889688 0 0 1-4.733222-65.309361l170.669063-284.44844A56.889688 56.889688 0 0 1 227.578504 0h682.676254a56.889688 56.889688 0 0 1 48.788597 27.625632l170.669063 284.44844a56.889688 56.889688 0 0 1-4.733222 65.309361l-512.007191 625.786567a57.003467 57.003467 0 0 1-88.110748 0zM126.292103 336.286323L568.916631 877.307255l442.624528-541.020932L878.032439 113.779376H259.800823z" fill="#005826" p-id="7787"></path><path d="M853.36507 398.227815H284.468192a56.889688 56.889688 0 0 1 0-113.779376h568.896878a56.889688 56.889688 0 0 1 0 113.779376z" fill="#005826" p-id="7788"></path></svg>