<?xml version="1.0" standalone="no"?><!DOCTYPE svg PUBLIC "-//W3C//DTD SVG 1.1//EN" "http://www.w3.org/Graphics/SVG/1.1/DTD/svg11.dtd"><svg t="1677920671313" class="icon" viewBox="0 0 1024 1024" version="1.1" xmlns="http://www.w3.org/2000/svg" p-id="13453" xmlns:xlink="http://www.w3.org/1999/xlink" width="200" height="200"><path d="M513.365333 272.298667c25.002667 22.698667 50.133333 45.226667 75.434667 67.584 82.346667 74.410667 166.784 161.28 249.642667 235.690666 9.045333 7.978667 10.666667 3.413333-0.512 21.589334-2.133333 95.402667 0 206.506667 0.512 300.757333-2.133333 12.8-2.133333 25.856 0 38.613333a77.568 77.568 0 0 1-36.096 0c-34.005333-0.512-59.349333-0.853333-83.882667-0.981333l-18.389333-0.085333-38.826667-0.085334H217.984c-39.808 0-27.605333 6.229333-29.738667-38.613333-0.512-99.413333-0.512-222.378667 0-321.749333 0-5.12-6.4-4.565333-2.133333-7.936A28409.045333 28409.045333 0 0 1 376.32 395.52c41.941333-38.058667 84.48-76.117333 126.378667-114.176 3.2-2.816 6.4-5.674667 10.666666-9.088z m-51.328 325.418666l-0.213333-0.213333-0.896 0.426667a29.653333 29.653333 0 0 0-11.050667 6.186666c-73.813333 45.056-124.501333 153.728-124.501333 243.626667 0 12.586667-1.792 18.517333 0 30.677333h231.466667V759.893333l11.52 11.690667a32.170667 32.170667 0 0 0 6.272 5.034667 22.357333 22.357333 0 0 0 22.058666 20.352 22.357333 22.357333 0 0 0 21.845334-18.090667h0.426666v-4.565333c0-7.552 6.101333-13.482667 13.312-13.482667 7.424 0 13.269333 6.144 13.269334 13.482667v104.106666h35.584v-104.106666a48.554667 48.554667 0 0 0-67.328-45.738667l-1.109334-1.365333-120.234666-121.472a30.848 30.848 0 0 0-30.421334-8.021334z m39.68-119.893333c-5.205333 8.234667-7.466667 17.877333-8.576 22.442667l-7.466666 37.290666-4.266667 1.152c-6.954667 1.834667-21.589333 21.248-19.797333 28.373334a13.013333 13.013333 0 0 0 16.213333 9.386666l28.373333-7.594666a78.208 78.208 0 0 0 76.544 64.298666 78.293333 78.293333 0 0 0 77.909334-78.677333c0-9.173333-1.578667-18.090667-4.522667-26.325333l33.322667-9.130667a13.397333 13.397333 0 0 0 9.472-16.469333c-1.834667-7.125333-24.106667-16.512-31.104-14.677334l-4.266667 1.152-20.821333-23.893333c0.085333 0.170667 0 0.128 0 0l-0.298667-0.341333-1.109333-1.152-3.754667-3.84a103.210667 103.210667 0 0 0-17.237333-14.208c-12.16-7.125333-106.496 13.226667-118.613334 32.256z m8.106667-392.448c19.114667-0.554667 37.546667 6.997333 51.328 20.906667l2.688 2.858666 124.8 114.176c2.133333 1.706667 4.266667 3.413333 7.978667 6.826667l32.938666 27.221333c81.066667 76.501333 124.288 116.992 129.621334 121.514667 36.693333 31.829333 72.234667 64.768 108.373333 97.706667 17.493333 15.872 18.048 23.808 3.2 43.093333a1936.213333 1936.213333 0 0 0-27.136 35.242667c-5.290667 10.794667-16.981333 14.762667-27.050667 9.088a24.32 24.32 0 0 1-6.912-6.229334l-383.573333-350.378666c-4.224-3.968-8.96-7.978667-14.336-12.501334-28.544 26.069333-57.216 52.053333-86.016 77.824l-311.296 283.904a20.096 20.096 0 0 1-13.098667 8.746667 19.328 19.328 0 0 1-15.061333-3.626667 29.44 29.44 0 0 1-6.4-7.936c-9.557333-12.501333-19.626667-25.002667-29.184-38.058666a22.784 22.784 0 0 1-3.712-30.72 15.914667 15.914667 0 0 1 6.357333-5.632 24250.069333 24250.069333 0 0 1 174.208-159.018667l232.149334-211.242667c13.056-14.677333 31.146667-23.253333 50.176-23.765333z" fill="#005826" p-id="13454"></path></svg>